<?xml version="1.0" encoding="utf-8"?>
<!-- Generator: Adobe Illustrator 25.0.0, SVG Export Plug-In . SVG Version: 6.00 Build 0)  -->
<svg version="1.1" id="Capa_1" xmlns="http://www.w3.org/2000/svg" xmlns:xlink="http://www.w3.org/1999/xlink" x="0px" y="0px"
	 viewBox="0 0 24 24" style="enable-background:new 0 0 24 24; fill: #1F1F1F" xml:space="preserve">
<path d="M22.7,0H1.3C0.6,0,0,0.6,0,1.3v21.4C0,23.4,0.6,24,1.3,24h0h11.5v-9.3H9.7v-3.6h3.1V8.4c-0.2-2.4,1.5-4.5,3.9-4.8
	c0.3,0,0.5,0,0.8,0c0.9,0,1.9,0,2.8,0.1V7h-1.9c-1.5,0-1.8,0.7-1.8,1.8v2.3h3.6l-0.5,3.6h-3.1V24h6.1c0.7,0,1.3-0.6,1.3-1.3l0,0V1.3
	C24,0.6,23.4,0,22.7,0L22.7,0z"/>
</svg>
