<?xml version="1.0" encoding="utf-8"?>
<!-- Generator: Adobe Illustrator 25.0.0, SVG Export Plug-In . SVG Version: 6.00 Build 0)  -->
<svg version="1.1" id="Capa_1" xmlns="http://www.w3.org/2000/svg" xmlns:xlink="http://www.w3.org/1999/xlink" x="0px" y="0px"
	 viewBox="0 0 32 32" style="enable-background:new 0 0 32 32; fill: #1F1F1F" xml:space="preserve">
<path d="M19.8,16c0,2.1-1.7,3.8-3.8,3.8s-3.8-1.7-3.8-3.8s1.7-3.8,3.8-3.8S19.8,13.9,19.8,16z"/>
<path d="M25.3,11.4c0-1.1-0.2-1.7-0.4-2.1C24.7,8.7,24.4,8.3,24,8c-0.4-0.4-0.8-0.7-1.3-0.9c-0.4-0.1-1-0.3-2.1-0.4
	C19.4,6.7,19,6.6,16,6.6l0,0c-3,0-3.4,0-4.6,0.1c-1.1,0-1.7,0.2-2.1,0.4C8.7,7.3,8.3,7.5,7.9,7.9C7.5,8.3,7.2,8.7,7.1,9.2
	c-0.2,0.4-0.3,1-0.4,2.1c0,1.2-0.1,1.6-0.1,4.6c0,3,0,3.4,0.1,4.6c0.1,1.1,0.2,1.7,0.4,2.1c0.2,0.5,0.5,0.9,0.8,1.3
	c0.4,0.4,0.8,0.6,1.3,0.9c0.4,0.1,1,0.3,2.1,0.4c1.2,0.1,1.6,0.1,4.6,0.1c3.1,0,3.4,0,4.6-0.1c1.1,0,1.7-0.2,2.1-0.4
	c0.5-0.2,0.9-0.5,1.3-0.9c0.4-0.4,0.6-0.8,0.9-1.3c0.1-0.4,0.3-1,0.4-2.1c0.1-1.2,0.1-1.6,0.1-4.6S25.3,12.6,25.3,11.4z M16,21.9
	c-3.2,0-5.9-2.6-5.9-5.9c0-3.2,2.6-5.9,5.9-5.9s5.9,2.6,5.9,5.9S19.2,21.9,16,21.9z M22.1,11.3c-0.8,0-1.4-0.6-1.4-1.4
	c0-0.8,0.6-1.4,1.4-1.4c0.8,0,1.4,0.6,1.4,1.4C23.5,10.7,22.8,11.3,22.1,11.3z"/>
<path d="M30.3,0H1.7C0.8,0,0,0.8,0,1.7v28.5C0,31.2,0.8,32,1.7,32h28.5c0.9,0,1.7-0.8,1.7-1.7V1.7C32,0.8,31.2,0,30.3,0z M27.3,20.7
	c-0.1,1.2-0.3,2-0.5,2.8c-0.3,0.8-0.7,1.4-1.3,2c-0.6,0.6-1.3,1-2,1.3c-0.7,0.3-1.5,0.5-2.8,0.5c-1.2,0.1-1.6,0.1-4.7,0.1
	s-3.5,0-4.7-0.1c-1.2-0.1-2-0.3-2.8-0.5c-0.8-0.3-1.4-0.7-2-1.3c-0.6-0.6-1-1.3-1.3-2c-0.3-0.7-0.5-1.5-0.5-2.8
	c-0.1-1.2-0.1-1.6-0.1-4.7s0-3.5,0.1-4.7c0.1-1.2,0.2-2,0.5-2.8c0.3-0.8,0.7-1.4,1.3-2c0.6-0.6,1.3-1,2-1.3c0.7-0.3,1.5-0.5,2.8-0.5
	c1.2-0.1,1.6-0.1,4.7-0.1s3.5,0,4.7,0.1c1.2,0.1,2,0.2,2.8,0.5c0.8,0.3,1.4,0.7,2,1.3c0.6,0.6,1,1.3,1.3,2c0.3,0.7,0.5,1.5,0.5,2.8
	c0.1,1.2,0.1,1.6,0.1,4.7S27.4,19.5,27.3,20.7z"/>
</svg>
