<?xml version="1.0" encoding="utf-8"?>
<!-- Generator: Adobe Illustrator 25.0.0, SVG Export Plug-In . SVG Version: 6.00 Build 0)  -->
<svg version="1.1" id="Capa_1" xmlns="http://www.w3.org/2000/svg" xmlns:xlink="http://www.w3.org/1999/xlink" x="0px" y="0px"
	 viewBox="0 0 242.7 242.7" style="enable-background:new 0 0 242.7 242.7; fill: #1F1F1F" xml:space="preserve">
<path d="M107,94.3l39.2,27l-39.2,27V94.3z M242.7,14.1v214.5c0,7.8-6.3,14.1-14.1,14.1H14.1c-7.8,0-14.1-6.3-14.1-14.1V14.1
	C0,6.3,6.3,0,14.1,0h214.5C236.4,0,242.7,6.3,242.7,14.1z M190.2,101.5c0-16.4-13.3-29.7-29.7-29.7H82.1
	c-16.4,0-29.7,13.3-29.7,29.7v39.7c0,16.4,13.3,29.7,29.7,29.7h78.5c16.4,0,29.7-13.3,29.7-29.7V101.5z"/>
</svg>
